{
  "accessors": [
    {
      "bufferView": 2,
      "componentType": 5126,
      "count": 33605,
      "max": [
        55.001930236816406,
        80.00198364257813,
        29.58511734008789
      ],
      "min": [
        -55.600486755371094,
        -80.92733001708984,
        -26.825098037719727
      ],
      "type": "VEC3"
    },
    {
      "bufferView": 2,
      "byteOffset": 403260,
      "componentType": 5126,
      "count": 33605,
      "max": [
        1.0,
        1.0,
        1.0
      ],
      "min": [
        -1.0,
        -1.0,
        -1.0
      ],
      "type": "VEC3"
    },
    {
      "bufferView": 1,
      "componentType": 5126,
      "count": 33605,
      "max": [
        0.9960379004478455,
        0.9950879216194153
      ],
      "min": [
        0.0014378316700458527,
        0.0033196057192981243
      ],
      "type": "VEC2"
    },
    {
      "bufferView": 1,
      "byteOffset": 268840,
      "componentType": 5126,
      "count": 33605,
      "max": [
        0.9980456829071045,
        0.9930709600448608
      ],
      "min": [
        0.001972496509552002,
        0.001971740508452058
      ],
      "type": "VEC2"
    },
    {
      "bufferView": 0,
      "componentType": 5125,
      "count": 57093,
      "type": "SCALAR"
    }
  ],
  "asset": {
    "extras": {
      "author": "sirsaugsage (https://sketchfab.com/sirsausage)",
      "license": "CC-BY-4.0 (http://creativecommons.org/licenses/by/4.0/)",
      "source": "https://sketchfab.com/3d-models/fantasy-game-inn-192bf30a7e28425ab385aef19769d4b0",
      "title": "Fantasy Game Inn"
    },
    "generator": "Sketchfab-12.67.0",
    "version": "2.0"
  },
  "bufferViews": [
    {
      "buffer": 0,
      "byteLength": 228372,
      "name": "floatBufferViews",
      "target": 34963
    },
    {
      "buffer": 0,
      "byteLength": 537680,
      "byteOffset": 228372,
      "byteStride": 8,
      "name": "floatBufferViews",
      "target": 34962
    },
    {
      "buffer": 0,
      "byteLength": 806520,
      "byteOffset": 766052,
      "byteStride": 12,
      "name": "floatBufferViews",
      "target": 34962
    }
  ],
  "buffers": [
    {
      "byteLength": 1572572,
      "uri": "scene.bin"
    }
  ],
  "extensionsUsed": [
    "KHR_materials_unlit"
  ],
  "images": [
    {
      "uri": "textures/bakeInn_baseColor.png"
    },
    {
      "uri": "textures/bakeInn_emissive.png"
    }
  ],
  "materials": [
    {
      "doubleSided": true,
      "emissiveFactor": [
        1.0,
        1.0,
        1.0
      ],
      "emissiveTexture": {
        "index": 1
      },
      "extensions": {
        "KHR_materials_unlit": {}
      },
      "name": "bakeInn",
      "pbrMetallicRoughness": {
        "baseColorTexture": {
          "index": 0
        },
        "metallicFactor": 0.0
      }
    }
  ],
  "meshes": [
    {
      "name": "TheInn_bakeInn_0",
      "primitives": [
        {
          "attributes": {
            "NORMAL": 1,
            "POSITION": 0,
            "TEXCOORD_0": 2,
            "TEXCOORD_1": 3
          },
          "indices": 4,
          "material": 0,
          "mode": 4
        }
      ]
    }
  ],
  "nodes": [
    {
      "children": [
        1
      ],
      "matrix": [
        0.09887995570898056,
        0.0,
        0.0,
        0.0,
        0.0,
        2.1955760700405183e-17,
        -0.09887995570898056,
        0.0,
        0.0,
        0.09887995570898056,
        2.1955760700405183e-17,
        0.0,
        0.0,
        0.0,
        0.0,
        1.0
      ],
      "name": "Sketchfab_model"
    },
    {
      "children": [
        2
      ],
      "matrix": [
        1.0,
        0.0,
        0.0,
        0.0,
        0.0,
        0.0,
        1.0,
        0.0,
        0.0,
        -1.0,
        0.0,
        0.0,
        0.0,
        0.0,
        0.0,
        1.0
      ],
      "name": "e60bf7258c79439fb8d027617c9bd698.fbx"
    },
    {
      "children": [
        3
      ],
      "name": "RootNode"
    },
    {
      "children": [
        4
      ],
      "matrix": [
        1.0,
        0.0,
        0.0,
        0.0,
        0.0,
        2.220446049250313e-16,
        -1.0,
        0.0,
        0.0,
        1.0,
        2.220446049250313e-16,
        0.0,
        338.0691223144531,
        62.04453659057617,
        21.641162872314453,
        1.0
      ],
      "name": "TheInn"
    },
    {
      "children": [
        5
      ],
      "matrix": [
        1.0,
        0.0,
        -0.0,
        0.0,
        0.0,
        1.0,
        0.0,
        0.0,
        0.0,
        0.0,
        1.0,
        0.0,
        0.299285888671875,
        0.4626731872558594,
        -1.3800086975097656,
        1.0
      ],
      "name": "Object_4"
    },
    {
      "mesh": 0,
      "name": "TheInn_bakeInn_0"
    }
  ],
  "samplers": [
    {
      "magFilter": 9729,
      "minFilter": 9987,
      "wrapS": 10497,
      "wrapT": 10497
    }
  ],
  "scene": 0,
  "scenes": [
    {
      "name": "Sketchfab_Scene",
      "nodes": [
        0
      ]
    }
  ],
  "textures": [
    {
      "sampler": 0,
      "source": 0
    },
    {
      "sampler": 0,
      "source": 1
    }
  ]
}
